<?xml version="1.0" encoding="utf-8"?>
<!-- Generator: Adobe Illustrator 26.0.1, SVG Export Plug-In . SVG Version: 6.00 Build 0)  -->
<svg version="1.1" id="Layer_1" xmlns="http://www.w3.org/2000/svg" xmlns:xlink="http://www.w3.org/1999/xlink" x="0px" y="0px"
	 viewBox="0 0 120 121" style="enable-background:new 0 0 120 121;" xml:space="preserve">
<g>
	<path d="M103.9,78.3l11.3,2.7l-1.3,2.3l-4.4-1.3c-0.7-0.2-1.4-0.5-2-0.7c-0.5-0.2-1.3-0.6-2.2-1.1L105,81c1.3,0.7,2.3,1.4,3,2
		l4.1,3.8l-1.5,2.8l-5.4-1.3c-0.5-0.1-1-0.3-1.5-0.5c-0.4-0.2-0.9-0.4-1.8-0.9l-0.4,0.8c0.9,0.5,1.6,0.9,2.1,1.2
		c0.6,0.4,1.2,0.8,1.7,1.3l3.4,3l-1.2,2.3l-8.4-8l1.3-2.4l5.7,1.4c0.8,0.2,1.3,0.4,1.7,0.5c0.4,0.2,0.9,0.4,1.6,0.8l0.4-0.8
		c-0.5-0.3-1-0.6-1.5-0.9c-0.4-0.3-0.8-0.6-1.4-1.2l-4.2-4L103.9,78.3z"/>
	<path d="M100.6,91.7c0.9,0.8,1.4,1.8,1.5,2.9s-0.3,2.1-1.1,2.9c-0.8,0.9-1.7,1.3-2.8,1.3c-1.1,0-2-0.4-3-1.3
		c-0.2-0.2-0.3-0.3-0.4-0.4l3.8-4.2c-0.5-0.4-1-0.6-1.5-0.6S96.4,92.6,96,93c-0.6,0.6-0.6,1.4-0.2,2.3l-1.9,1
		c-0.3-0.6-0.4-1.3-0.3-2.1c0.1-0.8,0.5-1.5,1.2-2.3c0.8-0.9,1.8-1.4,2.8-1.4C98.6,90.4,99.7,90.8,100.6,91.7z M99.8,94.2l-2.2,2.5
		c0.8,0.6,1.6,0.5,2.2-0.2c0.3-0.3,0.5-0.7,0.5-1.1S100.2,94.5,99.8,94.2z"/>
	<path d="M88.6,98.1l6,9.5l-4.2,2.7c-1,0.6-2,0.9-3,0.7s-1.8-0.7-2.4-1.6c-0.6-0.9-0.7-1.9-0.5-2.8c0.3-1,0.9-1.8,1.9-2.4l2.2-1.4
		l-2.1-3.3L88.6,98.1z M89.7,104.5l-1.8,1.2c-0.5,0.3-0.8,0.7-1,1.1c-0.1,0.4-0.1,0.9,0.2,1.3c0.3,0.4,0.6,0.6,1.1,0.7
		c0.5,0.1,0.9-0.1,1.4-0.4l1.8-1.2L89.7,104.5z"/>
	<path d="M79.9,103.2l3,7.4l-1.9,0.8c-0.3-0.8-0.4-1.6-0.3-2.5l-0.9,0.4c0.2,0.9,0.1,1.6-0.1,2.2s-0.7,0.9-1.4,1.3
		c-0.2,0.1-0.4,0.2-0.5,0.2l-0.9-2.2c0.3-0.1,0.6-0.2,0.8-0.3c0.8-0.3,1.3-0.7,1.5-1.2c0.2-0.5,0.1-1.2-0.3-2.2l-1.2-2.8L79.9,103.2
		z"/>
	<path d="M75.6,109.3c0.3,1.2,0.1,2.3-0.5,3.3s-1.5,1.5-2.7,1.8c-1.2,0.3-2.3,0.1-3.2-0.5c-0.9-0.6-1.6-1.5-1.8-2.7
		c-0.3-1.2-0.1-2.3,0.4-3.3c0.6-0.9,1.5-1.5,2.7-1.8c1.2-0.3,2.2-0.1,3.2,0.5S75.4,108.1,75.6,109.3z M69.8,108.8
		c-0.2,0.5-0.2,1.1-0.1,1.9c0.2,0.8,0.5,1.3,0.9,1.7c0.4,0.3,0.9,0.5,1.5,0.3c0.6-0.1,1-0.4,1.2-0.9c0.2-0.5,0.2-1.1,0.1-1.9
		c-0.2-0.8-0.5-1.3-0.9-1.6c-0.4-0.3-0.9-0.4-1.5-0.3C70.4,108,70,108.3,69.8,108.8z"/>
	<path d="M63.5,107.5l3.4,7.8l-2.4,0.1l-1.3-3.2c-0.3-0.7-0.4-1.2-0.5-1.6c-0.1-0.5-0.2-1.1-0.2-1.8l-0.8,0c0,0.8,0,1.4,0,1.8
		c0,0.4-0.1,0.9-0.3,1.5l-0.9,3.3l-2.3,0.1l2.5-8.1L63.5,107.5z"/>
	<path d="M56.3,116.5l-0.2,2.1l-2.4-0.2l0.2-2.1L56.3,116.5z M57,107.5l-0.7,8l-2.3-0.2l0.7-8L57,107.5z"/>
	<path d="M52.3,108c0.4,0.9,0.5,2,0.2,3.2c-0.3,1.2-0.8,2.1-1.6,2.8c-0.8,0.6-1.6,0.8-2.6,0.6c-1.2-0.3-1.9-1.1-2.1-2.4l-0.9-0.2
		c0.1,0.4,0.2,0.6,0.2,0.9c0,0.2,0.1,0.6,0.1,1c0,0.4-0.1,0.9-0.2,1.5l-0.4,1.5l-2.2-0.5l2.6-10.9l2,0.5c-0.1,0.4-0.4,0.9-1,1.4
		l0.9,0.2c0.4-0.5,0.9-0.9,1.3-1.1c0.5-0.2,1-0.2,1.8-0.1C51.2,106.5,51.9,107.1,52.3,108z M46.5,109.8c-0.2,0.8-0.2,1.4,0.1,1.9
		c0.2,0.5,0.6,0.8,1.2,1c1.2,0.3,2-0.4,2.4-2c0.4-1.6,0-2.6-1.2-2.9c-0.6-0.1-1.1,0-1.5,0.3C47,108.4,46.7,109,46.5,109.8z"/>
	<path d="M42.6,108.7c-0.5,1.1-1.3,1.9-2.3,2.3c-1,0.4-2.1,0.4-3.1-0.1c-1.1-0.5-1.8-1.2-2.1-2.3s-0.2-2.1,0.3-3.2
		c0.1-0.2,0.2-0.4,0.2-0.5l5.1,2.3c0.2-0.6,0.3-1.1,0.1-1.6c-0.2-0.4-0.5-0.8-0.9-1c-0.8-0.3-1.5-0.2-2.3,0.5l-1.5-1.6
		c0.5-0.5,1.2-0.8,1.9-1c0.7-0.2,1.6,0,2.6,0.4c1.1,0.5,1.9,1.3,2.2,2.3C43.2,106.4,43.1,107.5,42.6,108.7z M40,108.7l-3-1.4
		c-0.3,1,0,1.7,0.8,2.1c0.4,0.2,0.8,0.2,1.2,0.1C39.4,109.4,39.7,109.1,40,108.7z"/>
	<path d="M29.6,103.8c-1.1,1.3-2.4,1.9-4.1,2s-3.1-0.4-4.3-1.5c-1.1-0.9-1.7-1.9-2-3s-0.2-2.1,0.3-3.1l2.3,0.9
		c-0.6,1.5-0.4,2.7,0.8,3.7c0.8,0.7,1.6,0.9,2.5,0.8c0.9-0.1,1.8-0.6,2.6-1.5c0.8-0.9,1.1-1.8,1.1-2.7c0-0.9-0.4-1.7-1.1-2.4
		c-0.6-0.6-1.3-0.8-1.9-0.9c-0.6,0-1.2,0.1-1.6,0.5l2.7,2.4l-1.3,1.5l-4.5-4l3.8-4.3l1.6,1.4c-0.5,0.6-1.2,1-2.1,1.2l0.7,0.7
		c0.7-0.4,1.4-0.5,2.1-0.6c0.7,0,1.5,0.3,2.2,0.9c1.1,0.9,1.7,2.1,1.8,3.6C31.3,101.1,30.8,102.5,29.6,103.8z"/>
	<path d="M22,92.7l-4.4,3.2l-1.3-1.8l3.9-2.9c0.8-0.6,1-1.2,0.5-1.9c-0.3-0.4-0.7-0.6-1.2-0.6c-0.5,0-1.1,0.3-1.7,0.7l-3.2,2.3
		L13.3,90l6.5-4.7L21,87c-0.4,0.3-1.1,0.4-1.9,0.5l0.6,0.8c0.6-0.2,1.3-0.2,1.8-0.1c0.6,0.1,1,0.4,1.4,0.9c0.4,0.6,0.6,1.3,0.4,1.9
		S22.7,92.2,22,92.7z"/>
	<path d="M17.3,85.1c-0.5,0.2-0.9,0.3-1.4,0.2s-0.9-0.2-1.3-0.6c-0.4-0.3-0.8-0.7-1.2-1.2c-0.4-0.5-0.7-1-1.1-1.7L12,82
		c-0.7,0.3-0.8,0.9-0.4,1.7c0.4,0.9,1,1.2,1.9,1l0.5,2c-0.6,0.2-1.3,0.1-2-0.3c-0.7-0.4-1.3-1.1-1.8-2.1c-0.5-1-0.6-2-0.4-2.7
		c0.2-0.8,0.8-1.4,1.7-1.8l2.6-1.3c0.2-0.1,0.3-0.2,0.3-0.2s0-0.2-0.1-0.4L14,77.3l1.6-0.7l0.4,0.9c0.3,0.6,0.4,1.1,0.3,1.4
		c-0.1,0.3-0.5,0.6-1,0.9l0.3,0.7c1.3-0.2,2.3,0.3,2.8,1.4c0.3,0.7,0.4,1.3,0.2,1.9C18.3,84.3,17.9,84.8,17.3,85.1z M14,81.1
		l-0.5,0.2c0.5,0.8,0.9,1.3,1.3,1.6s0.8,0.4,1.2,0.2c0.5-0.2,0.6-0.7,0.3-1.3c-0.2-0.4-0.5-0.7-0.9-0.9S14.6,80.8,14,81.1z"/>
	<path d="M15.4,75.8L7.7,78l-0.6-2c0.8-0.2,1.7-0.2,2.5,0l-0.3-0.9c-0.9,0.1-1.6,0-2.1-0.3S6.4,74,6.2,73.2
		c-0.1-0.3-0.1-0.4-0.1-0.5l2.2-0.6c0.1,0.3,0.1,0.6,0.2,0.9c0.2,0.8,0.6,1.3,1.1,1.6c0.5,0.2,1.2,0.2,2.2-0.1l3-0.9L15.4,75.8z"/>
	<path d="M11.7,70.4c-0.5,0.1-1,0-1.4-0.2c-0.4-0.2-0.8-0.5-1.1-0.9c-0.3-0.4-0.5-0.9-0.7-1.5c-0.2-0.5-0.4-1.2-0.6-2l-0.3,0
		c-0.7,0.1-1,0.6-0.9,1.4c0.1,1,0.6,1.5,1.5,1.6L8,71c-0.7,0-1.3-0.3-1.9-0.9c-0.6-0.6-0.9-1.5-1-2.6c-0.1-1.1,0-2.1,0.5-2.7
		c0.4-0.7,1.2-1.1,2.2-1.2l2.9-0.4c0.2,0,0.3-0.1,0.4-0.1c0-0.1,0.1-0.2,0-0.4L11,62l1.7-0.2l0.1,0.9c0.1,0.7,0,1.1-0.2,1.4
		c-0.2,0.3-0.6,0.4-1.2,0.5l0.1,0.7c1.3,0.2,2.1,1,2.2,2.2c0.1,0.7,0,1.4-0.4,1.9C12.9,70.1,12.4,70.4,11.7,70.4z M9.9,65.6
		l-0.5,0.1c0.2,0.9,0.5,1.6,0.7,2c0.3,0.4,0.6,0.6,1.1,0.5c0.6-0.1,0.8-0.4,0.7-1.1c-0.1-0.5-0.3-0.9-0.6-1.1
		C11,65.6,10.5,65.5,9.9,65.6z"/>
	<path d="M12.8,61.1l-8-0.5l0.1-2c0.5,0,1.1,0.3,1.8,0.9l0.1-1c-0.6-0.3-1.1-0.6-1.5-1c-0.3-0.4-0.5-1-0.5-1.5
		c0.1-0.9,0.4-1.5,0.9-2s1.3-0.6,2.2-0.6l5.3,0.3L13.1,56l-4.9-0.3c-1-0.1-1.5,0.3-1.6,1.2c0,0.5,0.1,0.8,0.4,1.1
		c0.4,0.4,1.1,0.6,2.1,0.7l3.8,0.2L12.8,61.1z"/>
	<path d="M11.8,50.8l-4.1-1l-0.4,1.6l-1.7-0.4L6,49.4l-2.4-0.6l0.5-2.2l2.4,0.6l0.5-2l1.7,0.4l-0.5,2l3.7,0.9c0.2,0.1,0.4,0,0.6,0
		c0.1-0.1,0.2-0.2,0.3-0.5l0.4-1.7l1.8,0.4l-0.6,2.6c-0.1,0.6-0.4,1.1-0.9,1.3S12.4,50.9,11.8,50.8z"/>
	<path d="M11.2,44.9c-1.1-0.5-1.9-1.2-2.4-2.2c-0.4-1-0.4-2.1,0-3.1c0.5-1.1,1.2-1.8,2.2-2.2c1-0.3,2.1-0.3,3.2,0.2
		c0.2,0.1,0.4,0.2,0.5,0.2L12.6,43c0.6,0.2,1.1,0.2,1.6,0.1s0.7-0.5,0.9-1c0.3-0.8,0.1-1.5-0.6-2.2l1.5-1.6c0.5,0.5,0.8,1.1,1,1.9
		c0.2,0.7,0.1,1.6-0.3,2.6c-0.5,1.1-1.2,1.9-2.2,2.3C13.5,45.4,12.4,45.4,11.2,44.9z M11.1,42.3l1.3-3.1c-1-0.3-1.7,0-2.1,0.9
		c-0.2,0.4-0.2,0.8-0.1,1.2C10.4,41.7,10.7,42.1,11.1,42.3z"/>
	<path d="M14.8,36.3c-1-0.7-1.7-1.5-1.9-2.6c-0.3-1.1-0.1-2.1,0.6-3.1c0.7-1,1.5-1.6,2.5-1.8c1-0.2,2.1,0.1,3.1,0.8
		c0.2,0.1,0.4,0.2,0.4,0.3l-3.1,4.8c0.6,0.3,1.1,0.4,1.5,0.4c0.5-0.1,0.8-0.4,1.1-0.8c0.4-0.7,0.4-1.5-0.2-2.3l1.8-1.3
		c0.4,0.6,0.6,1.3,0.7,2c0,0.8-0.2,1.6-0.8,2.5c-0.7,1-1.5,1.7-2.6,1.9S15.9,37,14.8,36.3z M15.2,33.7l1.8-2.8
		c-0.9-0.5-1.7-0.3-2.2,0.5c-0.2,0.4-0.3,0.8-0.3,1.2C14.6,33,14.9,33.4,15.2,33.7z"/>
	<path d="M22.9,29.9c-1-0.1-1.9-0.6-2.9-1.5c-0.9-0.9-1.4-1.8-1.6-2.8c-0.1-1,0.1-1.8,0.8-2.5c0.9-0.9,1.9-1.1,3.2-0.6l0.7-0.7
		c-0.4-0.1-0.7-0.2-0.9-0.2c-0.2-0.1-0.5-0.2-0.9-0.5c-0.4-0.2-0.8-0.6-1.2-1L19,19.1l1.6-1.6l8.1,7.7l-1.4,1.5
		c-0.3-0.3-0.5-0.8-0.7-1.6l-0.7,0.7c0.2,0.6,0.3,1.2,0.3,1.7c0,0.5-0.3,1-0.8,1.6C24.7,29.7,23.9,30,22.9,29.9z M24.3,24
		c-0.6-0.6-1.2-0.9-1.7-0.9s-1,0.1-1.4,0.6c-0.9,0.9-0.7,1.9,0.5,3.1c1.2,1.2,2.3,1.3,3.1,0.4c0.4-0.4,0.6-0.9,0.5-1.5
		S24.8,24.5,24.3,24z"/>
	<path d="M29.6,17.1c-0.8-1.5-1-3-0.6-4.5c0.4-1.5,1.4-2.7,3-3.5c1.6-0.9,3.1-1.1,4.6-0.6c1.5,0.5,2.6,1.4,3.5,2.9
		c0.6,1.2,0.9,2.4,0.8,3.5c0.5,0,1-0.2,1.6-0.5l1,1.8c-0.7,0.4-1.3,0.6-1.8,0.5c-0.5-0.1-1-0.3-1.5-0.8l-0.6,0.3
		c0,0.5-0.1,1.1-0.5,1.7c-0.4,0.6-0.9,1.1-1.6,1.5c-1.5,0.8-3,1-4.4,0.6C31.5,19.6,30.3,18.6,29.6,17.1z M38,16.2L37.5,16
		c-0.6-0.2-1.1-0.3-1.6-0.3c-0.4,0-0.9,0.2-1.5,0.5l-0.9-1.7c0.2-0.1,0.4-0.3,0.6-0.4c0.7-0.4,1.4-0.5,2.1-0.4
		c0.7,0.2,1.3,0.6,1.7,1.3l0.7-0.4c-0.1-0.7-0.4-1.4-0.8-2.1c-0.5-1-1.3-1.7-2.1-2c-0.9-0.3-1.8-0.2-2.7,0.2
		c-0.9,0.5-1.5,1.2-1.7,2.1s0,1.9,0.5,2.9c0.5,1,1.3,1.7,2.1,2c0.9,0.3,1.8,0.2,2.7-0.3C37.3,17.3,37.7,16.8,38,16.2z"/>
	<path d="M43.3,13.5l-1.4-5.2l2.2-0.6l1.3,4.7c0.3,1,0.8,1.3,1.6,1.1c0.5-0.1,0.8-0.5,1-0.9c0.1-0.5,0.1-1.1-0.1-1.8l-1-3.8L49,6.4
		l2.1,7.7l-2,0.6c-0.1-0.5,0-1.1,0.3-2L48.4,13c0,0.7-0.2,1.3-0.5,1.7c-0.3,0.5-0.8,0.8-1.3,1c-0.7,0.2-1.4,0.1-2-0.3
		C44,15,43.6,14.4,43.3,13.5z"/>
	<path d="M52.2,11.8c0-0.5,0.1-1,0.3-1.4c0.2-0.4,0.5-0.7,1-1c0.4-0.3,0.9-0.5,1.5-0.7c0.6-0.2,1.2-0.3,2-0.5l0-0.3
		c-0.1-0.7-0.5-1.1-1.4-1c-1,0.1-1.5,0.5-1.7,1.4l-2.1-0.3c0-0.7,0.3-1.3,1-1.8c0.6-0.5,1.5-0.8,2.6-0.9c1.1-0.1,2,0.1,2.7,0.6
		c0.7,0.5,1,1.2,1.1,2.2l0.2,2.9c0,0.2,0.1,0.3,0.1,0.4c0.1,0,0.2,0.1,0.4,0l0.7-0.1l0.1,1.7l-0.9,0.1c-0.7,0.1-1.1,0-1.4-0.3
		c-0.2-0.2-0.4-0.6-0.5-1.3l-0.7,0.1c-0.3,1.3-1.1,2-2.3,2.1c-0.7,0.1-1.4-0.1-1.9-0.5C52.5,13.1,52.2,12.5,52.2,11.8z M57.1,10.2
		l0-0.5c-0.9,0.2-1.6,0.4-2,0.7c-0.4,0.2-0.6,0.6-0.6,1.1c0,0.6,0.4,0.8,1.1,0.8c0.5,0,0.9-0.2,1.2-0.6C57,11.3,57.1,10.8,57.1,10.2
		z"/>
	<path d="M61.6,13.4l0.6-11.2l2.3,0.1l-0.6,11.2L61.6,13.4z"/>
	<path d="M65.8,13.8l1.2-7.9l2.2,0.3L68,14.1L65.8,13.8z M67,4.8l0.3-2.1L69.7,3l-0.3,2.1L67,4.8z"/>
	<path d="M71.2,12.6l1.1-4l-1.6-0.4l0.4-1.7l1.6,0.4l0.6-2.4L75.6,5l-0.6,2.4l2,0.5l-0.4,1.7l-2-0.5l-1,3.6c-0.1,0.2-0.1,0.4,0,0.6
		c0.1,0.1,0.2,0.2,0.5,0.3l1.7,0.4l-0.5,1.7l-2.6-0.7c-0.6-0.2-1-0.5-1.3-0.9C71.1,13.7,71,13.2,71.2,12.6z"/>
	<path d="M84.3,11l2.2,1l-6.8,7.1c-0.5,0.5-1,0.8-1.4,0.9c-0.5,0.1-1,0-1.6-0.3l-2.2-1l0.7-1.6L77,18c0.3,0.1,0.5,0.2,0.7,0.1
		c0.2-0.1,0.4-0.2,0.7-0.5l0.3-0.3l-0.3-8.9l2.2,1l0,3.3c0,0.8-0.2,1.8-0.7,2.9l0.8,0.3c0.4-0.8,0.6-1.3,0.8-1.6
		c0.2-0.3,0.5-0.7,0.8-1.1L84.3,11z"/>
	<path d="M87.9,18.4l2.3,0.9c-0.3,0.6-0.4,1.2-0.3,1.9c0.1,0.6,0.4,1.2,1.1,1.7c0.6,0.5,1.1,0.7,1.5,0.7c0.4,0,0.8-0.1,1.1-0.5
		c0.5-0.6,0.3-1.3-0.5-2.2l-1-1c-1.6-1.7-1.8-3.4-0.6-4.8c0.6-0.8,1.4-1.1,2.5-1.1c1,0,2.1,0.4,3.1,1.3c1,0.8,1.6,1.7,1.9,2.6
		s0.2,1.8-0.1,2.7l-2.2-0.8c0.5-1.2,0.2-2.2-0.8-3c-0.5-0.4-0.9-0.6-1.3-0.6c-0.4,0-0.7,0.2-1,0.5c-0.4,0.5-0.3,1.1,0.4,1.8l1,1
		c0.9,0.9,1.4,1.8,1.5,2.7c0.2,0.9-0.1,1.7-0.7,2.5c-0.7,0.8-1.5,1.2-2.6,1.2c-1,0-2.2-0.5-3.3-1.4c-1.1-0.9-1.8-1.9-2.1-2.9
		S87.4,19.3,87.9,18.4z"/>
	<path d="M97,25.1c0.9-0.8,2-1.1,3.1-1c1.1,0.1,2,0.6,2.8,1.5c0.8,0.9,1.1,1.9,0.9,3c-0.2,1-0.7,1.9-1.7,2.7
		c-0.2,0.2-0.3,0.3-0.4,0.3L98,27.2c-0.5,0.4-0.8,0.9-0.8,1.3s0.1,0.9,0.4,1.3c0.5,0.6,1.3,0.8,2.3,0.6l0.7,2.1
		c-0.7,0.2-1.4,0.2-2.1,0c-0.7-0.2-1.4-0.7-2.1-1.5c-0.8-0.9-1.1-2-1-3C95.5,26.9,96,25.9,97,25.1z M99.3,26.3l2.1,2.6
		c0.7-0.7,0.8-1.5,0.2-2.2c-0.3-0.4-0.6-0.6-1-0.6C100.2,25.9,99.8,26,99.3,26.3z"/>
	<path d="M99.6,34.9l6.9-4l1,1.8c-0.7,0.4-1.6,0.6-2.4,0.6l0.5,0.8c0.9-0.3,1.6-0.4,2.2-0.2c0.6,0.1,1,0.6,1.4,1.3
		c0.1,0.2,0.2,0.4,0.2,0.4l-2,1.2c-0.1-0.3-0.3-0.5-0.4-0.8c-0.4-0.7-0.9-1.2-1.4-1.3c-0.5-0.1-1.2,0.1-2.2,0.6l-2.7,1.5L99.6,34.9z
		"/>
	<path d="M103.5,42.4l6.4-5.7l0.9,2.2l-2.7,2.2c-0.5,0.4-1,0.8-1.3,0.9c-0.4,0.2-1,0.5-1.6,0.7l0.3,0.8c0.7-0.3,1.3-0.5,1.8-0.6
		c0.4-0.1,0.9-0.2,1.5-0.2l3.4-0.2l0.8,2.2l-8.5,0.1L103.5,42.4z"/>
	<path d="M105.6,48.7l7.8-1.8l0.5,2.2l-7.8,1.8L105.6,48.7z M114.4,46.5l2.1-0.5l0.5,2.4l-2.1,0.5L114.4,46.5z"/>
	<path d="M110.5,51.7c1.2-0.1,2.3,0.2,3.1,0.9s1.3,1.7,1.5,2.9c0.1,0.9-0.1,1.7-0.4,2.4c-0.4,0.7-0.9,1.2-1.6,1.6l-1-2
		c0.9-0.4,1.3-1.1,1.2-1.9c-0.1-0.6-0.3-1-0.8-1.3s-1.1-0.4-1.8-0.4c-0.8,0.1-1.3,0.3-1.7,0.7c-0.4,0.4-0.6,0.9-0.5,1.5
		c0.1,0.9,0.6,1.4,1.7,1.7l-0.6,2.2c-0.8-0.2-1.5-0.7-2-1.3s-0.8-1.4-0.9-2.4c-0.1-1.2,0.2-2.3,0.9-3.2S109.2,51.8,110.5,51.7z"/>
	<path d="M111.2,61.1c1.2,0.1,2.2,0.6,2.9,1.4c0.7,0.8,1,1.8,0.9,3c-0.1,1.2-0.6,2.1-1.4,2.7c-0.8,0.6-1.9,0.9-3.1,0.8
		c-0.2,0-0.4,0-0.5-0.1l0.5-5.6c-0.7,0-1.2,0.1-1.5,0.4c-0.4,0.3-0.6,0.7-0.6,1.2c-0.1,0.8,0.3,1.5,1.2,2l-1,2
		c-0.6-0.3-1.1-0.8-1.5-1.5c-0.4-0.6-0.5-1.5-0.4-2.6c0.1-1.2,0.6-2.2,1.4-2.8C108.9,61.2,109.9,60.9,111.2,61.1z M112.1,63.5
		l-0.3,3.3c1,0,1.6-0.5,1.7-1.5c0-0.5-0.1-0.8-0.3-1.2C112.9,63.8,112.6,63.6,112.1,63.5z"/>
</g>
</svg>
